<svg width="16" height="16" viewBox="0 0 16 16" fill="none" xmlns="http://www.w3.org/2000/svg">
<path fill-rule="evenodd" clip-rule="evenodd" d="M0.706977 7.33545L0.65625 7.85365L0.678557 7.86125C0.677703 7.90739 0.67727 7.95365 0.67727 8.00005C0.67727 12.0501 3.96052 15.3334 8.01062 15.3334C12.0607 15.3334 15.3439 12.0501 15.3439 8.00005C15.3439 3.94993 12.0607 0.666687 8.01062 0.666687C5.34846 0.666687 3.01763 2.08521 1.73275 4.20763L1.7076 4.19814L1.45368 4.71248C1.05106 5.51391 0.791063 6.39935 0.706977 7.33545ZM2.10713 6.93832L6.26119 8.34912L4.13088 12.5771C5.17695 13.4647 6.53126 14.0001 8.01062 14.0001C11.1739 14.0001 13.7654 11.5521 13.9942 8.44719L13.7723 8.57612L10.8487 11.9651L9.52342 9.27672L7.32742 8.53432V5.82289L6.17093 5.43188L4.8228 6.79925L2.3967 5.88343C2.27071 6.22087 2.1734 6.57377 2.10713 6.93832ZM13.9188 6.94879C13.4218 4.13633 10.9657 2.00002 8.01062 2.00002C5.92096 2.00002 4.08081 3.06827 3.00647 4.68845L4.48225 5.24553L5.80738 3.90149L8.66075 4.86619V7.57759L10.4747 8.19085L11.1543 9.56965L12.9089 7.53579L13.9188 6.94879ZM3.16254 11.5357C2.49632 10.6238 2.08117 9.51679 2.0188 8.31645L4.38049 9.11852L3.16254 11.5357Z" fill="#4F586B"/>
</svg>
