<svg xmlns="http://www.w3.org/2000/svg" fill="none" viewBox="0 0 20 20" class="design-iconfont">
    <path fill-rule="evenodd" clip-rule="evenodd" d="M13.3684 5.67738C13.2345 5.06596 12.807 4.60254 12.2743 4.49181C11.3895 4.34382 10.2912 4.16666 8.05556 4.16666C5.60994 4.16666 4.58421 4.33409 3.77193 4.47237C3.26959 4.60794 2.87368 5.05732 2.74386 5.63957C2.62749 6.3682 2.5 8.1915 2.5 9.72221C2.5 11.227 2.62339 13.0384 2.74269 13.767C2.87661 14.3785 3.30409 14.8419 3.83684 14.9526C4.72164 15.1006 5.81988 15.2778 8.05556 15.2778C10.2912 15.2778 11.3895 15.1006 12.2754 14.9602C12.8105 14.8494 13.2409 14.3833 13.376 13.7692C13.4877 13.0384 13.6111 11.227 13.6111 9.72221C13.6111 8.21743 13.4877 6.40601 13.3684 5.67738ZM3.88875 6.24999C3.88875 5.86646 4.19967 5.55555 4.5832 5.55555H5.27764C5.66117 5.55555 5.97209 5.86646 5.97209 6.24999C5.97209 6.63352 5.66117 6.94444 5.27764 6.94444H4.5832C4.19967 6.94444 3.88875 6.63352 3.88875 6.24999ZM17.0833 5.55555C15.9118 5.55555 15 7.12251 15 8.03571V11.4087C15 12.4836 15.6674 13.8889 17.0833 13.8889C17.7382 13.8889 17.7778 11.2103 17.7778 9.72221C17.7778 8.23412 17.7778 5.55555 17.0833 5.55555Z" fill="#fff" />
</svg>
  