<svg xmlns="http://www.w3.org/2000/svg" fill="none" viewBox="0 0 20 20" class="design-iconfont">
    <path fill-rule="evenodd" clip-rule="evenodd" d="M7.0835 5.27778C7.0835 3.74583 8.32933 2.5 9.86127 2.5C11.3932 2.5 12.6391 3.74583 12.6391 5.27778V9.44444C12.6391 10.9764 11.3932 12.2222 9.86127 12.2222C8.32933 12.2222 7.0835 10.9764 7.0835 9.44444V5.27778ZM7.77778 16.3889H11.9444C12.3285 16.3889 12.6389 16.6993 12.6389 17.0833C12.6389 17.4674 12.3285 17.7778 11.9444 17.7778H7.77778C7.39444 17.7778 7.08333 17.4674 7.08333 17.0833C7.08333 16.6993 7.39444 16.3889 7.77778 16.3889Z" fill="#fff" />
    <path d="M14.7222 8.76488V9.72909C14.7222 11.8731 12.5458 14.3056 9.86111 14.3056C7.17639 14.3056 5 11.8731 5 9.72909V8.75" stroke="#fff" stroke-width="1.38889" stroke-linecap="round" />
</svg>
  