<svg width="16" height="16" viewBox="0 0 16 16" fill="none" xmlns="http://www.w3.org/2000/svg">
    <path fill-rule="evenodd" clip-rule="evenodd" d="M15.1453 14.1927C15.2078 14.2552 15.2429 14.34 15.2429 14.4284C15.2429 14.5168 15.2078 14.6015 15.1453 14.664L14.674 15.1353C14.6115 15.1978 14.5267 15.2329 14.4383 15.2329C14.3499 15.2329 14.2652 15.1978 14.2027 15.1353L11.5527 12.4856C10.3631 13.4608 8.87188 13.9927 7.33366 13.9904C3.65166 13.9904 0.666992 11.0062 0.666992 7.32462C0.666992 3.64309 3.65166 0.658798 7.33366 0.658798C11.0157 0.658798 14.0003 3.64309 14.0003 7.32462C14.0003 8.92542 13.436 10.3942 12.4957 11.5431L15.1453 14.1927ZM12.667 7.32462C12.667 4.37933 10.2793 1.99196 7.33366 1.99196C4.38799 1.99196 2.00033 4.37933 2.00033 7.32462C2.00033 10.2699 4.38799 12.6573 7.33366 12.6573C10.2793 12.6573 12.667 10.2699 12.667 7.32462Z" fill="#8F959E" />
</svg>
    