<svg width="22" height="22" viewBox="0 0 22 22" fill="none" xmlns="http://www.w3.org/2000/svg">
<g filter="url(#filter0_b_4620_7860)">
<mask id="path-1-inside-1_4620_7860" fill="white">
<path fill-rule="evenodd" clip-rule="evenodd" d="M10.6905 11.0476C13.1889 11.0476 15.2143 9.02224 15.2143 6.52381C15.2143 4.02538 13.1889 2 10.6905 2C8.19205 2 6.16667 4.02538 6.16667 6.52381C6.16667 9.02224 8.19205 11.0476 10.6905 11.0476ZM9 12.4048C5.68629 12.4048 3 15.0911 3 18.4048V20C3 20.5523 3.44772 21 4 21H17.381C17.9332 21 18.381 20.5523 18.381 20V18.4048C18.381 15.0911 15.6947 12.4048 12.381 12.4048H9Z"/>
</mask>
<path d="M13.7143 6.52381C13.7143 8.19382 12.3605 9.54762 10.6905 9.54762V12.5476C14.0173 12.5476 16.7143 9.85067 16.7143 6.52381H13.7143ZM10.6905 3.5C12.3605 3.5 13.7143 4.85381 13.7143 6.52381H16.7143C16.7143 3.19695 14.0173 0.5 10.6905 0.5V3.5ZM7.66667 6.52381C7.66667 4.85381 9.02048 3.5 10.6905 3.5V0.5C7.36362 0.5 4.66667 3.19695 4.66667 6.52381H7.66667ZM10.6905 9.54762C9.02048 9.54762 7.66667 8.19382 7.66667 6.52381H4.66667C4.66667 9.85067 7.36362 12.5476 10.6905 12.5476V9.54762ZM4.5 18.4048C4.5 15.9195 6.51472 13.9048 9 13.9048V10.9048C4.85786 10.9048 1.5 14.2626 1.5 18.4048H4.5ZM4.5 20V18.4048H1.5V20H4.5ZM4 19.5C4.27614 19.5 4.5 19.7239 4.5 20H1.5C1.5 21.3807 2.61929 22.5 4 22.5V19.5ZM17.381 19.5H4V22.5H17.381V19.5ZM16.881 20C16.881 19.7239 17.1048 19.5 17.381 19.5V22.5C18.7617 22.5 19.881 21.3807 19.881 20H16.881ZM16.881 18.4048V20H19.881V18.4048H16.881ZM12.381 13.9048C14.8662 13.9048 16.881 15.9195 16.881 18.4048H19.881C19.881 14.2626 16.5231 10.9048 12.381 10.9048V13.9048ZM9 13.9048H12.381V10.9048H9V13.9048Z" fill="white" mask="url(#path-1-inside-1_4620_7860)"/>
</g>
<defs>
<filter id="filter0_b_4620_7860" x="-5" y="-6" width="31.381" height="35" filterUnits="userSpaceOnUse" color-interpolation-filters="sRGB">
<feFlood flood-opacity="0" result="BackgroundImageFix"/>
<feGaussianBlur in="BackgroundImageFix" stdDeviation="4"/>
<feComposite in2="SourceAlpha" operator="in" result="effect1_backgroundBlur_4620_7860"/>
<feBlend mode="normal" in="SourceGraphic" in2="effect1_backgroundBlur_4620_7860" result="shape"/>
</filter>
</defs>
</svg>
