<svg width="22" height="22" viewBox="0 0 22 22" fill="none" xmlns="http://www.w3.org/2000/svg">
<g filter="url(#filter0_b_4620_7877)">
<mask id="path-1-inside-1_4620_7877" fill="white">
<path fill-rule="evenodd" clip-rule="evenodd" d="M9.21428 11.0476C11.7127 11.0476 13.7381 9.02224 13.7381 6.52381C13.7381 4.02538 11.7127 2 9.21428 2C6.71585 2 4.69047 4.02538 4.69047 6.52381C4.69047 9.02224 6.71585 11.0476 9.21428 11.0476ZM7.5238 12.4048C4.21009 12.4048 1.5238 15.0911 1.5238 18.4048V20C1.5238 20.5523 1.97152 21 2.5238 21H15.9048C16.457 21 16.9048 20.5523 16.9048 20V18.4048C16.9048 15.0911 14.2185 12.4048 10.9048 12.4048H7.5238Z"/>
</mask>
<path d="M12.2381 6.52381C12.2381 8.19382 10.8843 9.54762 9.21428 9.54762V12.5476C12.5411 12.5476 15.2381 9.85067 15.2381 6.52381H12.2381ZM9.21428 3.5C10.8843 3.5 12.2381 4.85381 12.2381 6.52381H15.2381C15.2381 3.19695 12.5411 0.5 9.21428 0.5V3.5ZM6.19047 6.52381C6.19047 4.85381 7.54428 3.5 9.21428 3.5V0.5C5.88743 0.5 3.19047 3.19695 3.19047 6.52381H6.19047ZM9.21428 9.54762C7.54428 9.54762 6.19047 8.19382 6.19047 6.52381H3.19047C3.19047 9.85067 5.88743 12.5476 9.21428 12.5476V9.54762ZM3.0238 18.4048C3.0238 15.9195 5.03852 13.9048 7.5238 13.9048V10.9048C3.38167 10.9048 0.0238037 14.2626 0.0238037 18.4048H3.0238ZM3.0238 20V18.4048H0.0238037V20H3.0238ZM2.5238 19.5C2.79995 19.5 3.0238 19.7239 3.0238 20H0.0238037C0.0238037 21.3807 1.14309 22.5 2.5238 22.5V19.5ZM15.9048 19.5H2.5238V22.5H15.9048V19.5ZM15.4048 20C15.4048 19.7239 15.6286 19.5 15.9048 19.5V22.5C17.2855 22.5 18.4048 21.3807 18.4048 20H15.4048ZM15.4048 18.4048V20H18.4048V18.4048H15.4048ZM10.9048 13.9048C13.39 13.9048 15.4048 15.9195 15.4048 18.4048H18.4048C18.4048 14.2626 15.0469 10.9048 10.9048 10.9048V13.9048ZM7.5238 13.9048H10.9048V10.9048H7.5238V13.9048Z" fill="white" mask="url(#path-1-inside-1_4620_7877)"/>
</g>
<g filter="url(#filter1_b_4620_7877)">
<path d="M16.1387 2L15.4255 3.12972C16.4609 3.86005 17.1428 5.10537 17.1428 6.51887C17.1428 7.60368 16.7429 8.58692 16.0876 9.31793L15.4806 9.99512C15.2262 10.3108 15.3083 10.7784 15.6551 10.9884L16.3979 11.4384C18.3784 12.5981 19.7143 14.8251 19.7143 17.3797L19.7143 21H21V17.3797C21 14.8045 19.8683 12.5084 18.1013 11.0157C17.7634 10.7303 17.4023 10.4742 17.0214 10.2512C17.318 9.92028 17.5756 9.55 17.7864 9.14854C18.1956 8.36942 18.4286 7.47288 18.4286 6.51887C18.4286 4.6342 17.5193 2.97378 16.1387 2Z" fill="white"/>
</g>
<defs>
<filter id="filter0_b_4620_7877" x="-6.4762" y="-6" width="31.381" height="35" filterUnits="userSpaceOnUse" color-interpolation-filters="sRGB">
<feFlood flood-opacity="0" result="BackgroundImageFix"/>
<feGaussianBlur in="BackgroundImageFix" stdDeviation="4"/>
<feComposite in2="SourceAlpha" operator="in" result="effect1_backgroundBlur_4620_7877"/>
<feBlend mode="normal" in="SourceGraphic" in2="effect1_backgroundBlur_4620_7877" result="shape"/>
</filter>
<filter id="filter1_b_4620_7877" x="7.33228" y="-6" width="21.6677" height="35" filterUnits="userSpaceOnUse" color-interpolation-filters="sRGB">
<feFlood flood-opacity="0" result="BackgroundImageFix"/>
<feGaussianBlur in="BackgroundImageFix" stdDeviation="4"/>
<feComposite in2="SourceAlpha" operator="in" result="effect1_backgroundBlur_4620_7877"/>
<feBlend mode="normal" in="SourceGraphic" in2="effect1_backgroundBlur_4620_7877" result="shape"/>
</filter>
</defs>
</svg>
