<svg width="20" height="20" viewBox="0 0 20 20" fill="none" xmlns="http://www.w3.org/2000/svg">
<path d="M16.1824 9.51357L16.1821 9.51324C16.1299 9.44676 16.0776 9.37967 16.0252 9.31233C15.7376 8.9431 15.4442 8.56644 15.1084 8.24324L15.1084 8.24321C13.8217 7.006 12.2711 6.32741 10.4901 6.20868L10.4899 6.20866C8.42264 6.07513 6.58463 6.69417 5.04078 8.07473C4.65144 8.42222 4.31829 8.84058 3.99434 9.24739C3.93404 9.32311 3.87406 9.39843 3.8141 9.47282C3.60946 9.72127 3.42134 9.91118 3.13143 9.94955L3.13073 9.94965C2.93596 9.97683 2.76484 9.9558 2.61805 9.89074C2.47152 9.82579 2.34301 9.71422 2.23742 9.55022L2.23723 9.54993C2.0235 9.22043 2.02134 8.87519 2.24866 8.56481L2.16799 8.50572L2.24837 8.56521C2.25604 8.55485 2.2637 8.54449 2.27136 8.53413C2.62595 8.05491 2.98162 7.5742 3.38736 7.15431C4.7207 5.77752 6.34742 4.89913 8.23082 4.55625L8.23086 4.55625C10.8798 4.07286 13.3081 4.62322 15.493 6.20873L15.4931 6.2088C16.3661 6.84061 17.0857 7.62259 17.6855 8.51745L17.6855 8.51752C17.7932 8.67787 17.8552 8.83668 17.8698 8.99467C17.8843 9.15185 17.8526 9.31448 17.7631 9.48454C17.5951 9.8028 17.3263 9.95397 17.0109 9.96332C16.6319 9.95833 16.3946 9.78569 16.1824 9.51357Z" fill="#0ABF5B" stroke="white" stroke-width="0.2"/>
<path d="M14.6145 12.6298L14.6145 12.6298C15.0664 12.4104 15.253 11.8895 15.022 11.4054C14.0093 9.29366 12.3068 8.23957 10.0545 8.1129C9.96051 8.11968 9.87631 8.12465 9.79868 8.12922L14.6145 12.6298ZM14.6145 12.6298C14.1548 12.8531 13.6326 12.6687 13.3961 12.1694C13.0216 11.3656 12.455 10.7323 11.6558 10.3353C10.5487 9.78423 9.41715 9.7842 8.31003 10.3352C7.51603 10.7272 6.94898 11.3507 6.57911 12.1504L6.57895 12.1508C6.49227 12.3401 6.37741 12.4817 6.23753 12.5757C6.09814 12.6693 5.92808 12.7196 5.7238 12.7174C5.35364 12.713 5.08056 12.5319 4.92518 12.1856C4.81037 11.9295 4.81462 11.672 4.93402 11.4199C5.83768 9.52613 7.31766 8.42972 9.4072 8.16071L14.6145 12.6298Z" fill="#0ABF5B" stroke="white" stroke-width="0.2"/>
<path d="M9.97616 15.6471H9.97616C9.02554 15.6425 8.24027 14.8428 8.24949 13.9023L8.24949 13.9023C8.25873 12.956 9.0347 12.1848 9.97592 12.1801C10.9266 12.1802 11.7116 12.9656 11.7116 13.9111C11.7116 14.8572 10.9164 15.6517 9.97616 15.6471Z" fill="#0ABF5B" stroke="white" stroke-width="0.2"/>
</svg>
