<svg width="16" height="16" viewBox="0 0 16 16" fill="none" xmlns="http://www.w3.org/2000/svg">
<path fill-rule="evenodd" clip-rule="evenodd" d="M8 0C6.34964 0 4.84195 0.665518 3.75973 1.75973C2.66552 2.84195 2 4.34964 2 6C2 7.64948 2.66481 9.15644 3.75797 10.2385C4.12866 10.6192 4.54836 10.9351 5 11.1947V13.6667H11V11.1947C11.4516 10.9351 11.8713 10.6192 12.242 10.2385C13.3352 9.15643 14 7.64948 14 6C14 2.68063 11.3194 0 8 0ZM4.69733 2.70772L4.70255 2.70255L4.70772 2.69733C5.54467 1.8511 6.71312 1.33333 8 1.33333C10.583 1.33333 12.6667 3.41701 12.6667 6C12.6667 7.28619 12.1495 8.45407 11.304 9.29093L11.2953 9.29956L11.2868 9.30835C11.0105 9.5921 10.6912 9.83431 10.3355 10.0388L9.66667 10.4233V12.3333H6.33333V10.4233L5.66449 10.0388C5.30882 9.83432 4.98954 9.5921 4.71325 9.30836L4.70469 9.29957L4.69597 9.29094C3.85055 8.45408 3.33333 7.28619 3.33333 6C3.33333 4.71312 3.8511 3.54467 4.69733 2.70772Z" fill="#4F586B"/>
<path d="M5.03971 16H10.9597V14.6667H5.03971V16Z" fill="#4F586B"/>
</svg>
