<svg width="16" height="16" viewBox="0 0 16 16" fill="none" xmlns="http://www.w3.org/2000/svg">
<path fill-rule="evenodd" clip-rule="evenodd" d="M7.99984 14C11.3136 14 13.9998 11.3137 13.9998 7.99999C13.9998 4.68628 11.3136 1.99999 7.99984 1.99999C4.68613 1.99999 1.99984 4.68628 1.99984 7.99999C1.99984 11.3137 4.68613 14 7.99984 14ZM15.3332 7.99999C15.3332 12.0501 12.0499 15.3333 7.99984 15.3333C3.94975 15.3333 0.666504 12.0501 0.666504 7.99999C0.666504 3.9499 3.94975 0.666656 7.99984 0.666656C12.0499 0.666657 15.3332 3.9499 15.3332 7.99999ZM8.6691 12.1693H7.33317V10.8333H8.6691V12.1693ZM7.3333 10.1667V9.33332C7.3333 8.75559 7.59344 8.28432 7.88417 7.92679C8.17197 7.57279 8.53344 7.27726 8.8241 7.04819C9.13544 6.80299 9.3333 6.42478 9.3333 5.99999C9.3333 5.26361 8.73637 4.66666 7.99997 4.66666C7.42044 4.66666 6.9257 5.03672 6.7423 5.55549L6.52016 6.18405L5.26304 5.73972L5.48521 5.11116C5.85097 4.07633 6.83784 3.33332 7.99997 3.33332C9.4727 3.33332 10.6666 4.52723 10.6666 5.99999C10.6666 6.85059 10.2676 7.60832 9.6493 8.09552C9.36157 8.32226 9.10464 8.53919 8.9187 8.76792C8.73564 8.99306 8.66664 9.17466 8.66664 9.33332V10.1667H7.3333Z" fill="#4F658A"/>
</svg>
