<svg width="14" height="16" viewBox="0 0 14 16" fill="none" xmlns="http://www.w3.org/2000/svg">
<path d="M4.33333 7.29317L6.77759 9.57954L10.1288 5.56943L9.27405 4.80012L6.62529 7.45667L5.06955 6.40971L4.33333 7.29317Z" fill="#FF4D00"/>
<path fill-rule="evenodd" clip-rule="evenodd" d="M7 15.6C12.3576 12.0116 14 7.01093 14 2.93326C13.3697 2.28083 10.6242 0.666656 7 0.666656C3.37576 0.666656 0.630303 2.28083 0 2.93326C0 7.01093 1.64242 12.0116 7 15.6ZM7 13.9668C2.91852 10.9109 1.50131 6.94957 1.34768 3.56553C1.67082 3.35389 2.18118 3.06854 2.87055 2.79403C3.95892 2.36063 5.38375 1.99999 7 1.99999C8.61625 1.99999 10.0411 2.36063 11.1294 2.79403C11.8188 3.06854 12.3292 3.35389 12.6523 3.56553C12.4987 6.94957 11.0815 10.9109 7 13.9668Z" fill="#FF4D00"/>
</svg>
