<svg xmlns="http://www.w3.org/2000/svg" fill="none" viewBox="0 0 40 40" class="design-iconfont">
    <path fill-rule="evenodd" clip-rule="evenodd" d="M0 20C0 8.95431 8.95431 0 20 0C31.0457 0 40 8.95431 40 20C40 31.0457 31.0457 40 20 40C8.95431 40 0 31.0457 0 20Z" fill="#19D255" />
    <path fill-rule="evenodd" clip-rule="evenodd" d="M24.0421 14.8129C23.8814 14.0792 23.3684 13.5231 22.7291 13.3902C21.6674 13.2126 20.3495 13 17.6667 13C14.7319 13 13.5011 13.2009 12.5263 13.3669C11.9235 13.5295 11.4484 14.0688 11.2926 14.7675C11.153 15.6419 11 17.8298 11 19.6667C11 21.4724 11.1481 23.6461 11.2912 24.5205C11.4519 25.2542 11.9649 25.8103 12.6042 25.9431C13.666 26.1207 14.9839 26.3333 17.6667 26.3333C20.3495 26.3333 21.6674 26.1207 22.7305 25.9522C23.3726 25.8194 23.8891 25.26 24.0512 24.5231C24.1853 23.6461 24.3333 21.4724 24.3333 19.6667C24.3333 17.8609 24.1853 15.6872 24.0421 14.8129ZM12.6667 15.5C12.6667 15.0398 13.0398 14.6667 13.5 14.6667H14.3333C14.7936 14.6667 15.1667 15.0398 15.1667 15.5C15.1667 15.9602 14.7936 16.3333 14.3333 16.3333H13.5C13.0398 16.3333 12.6667 15.9602 12.6667 15.5ZM28.5 14.6667C27.0942 14.6667 26 16.547 26 17.6429V21.6905C26 22.9804 26.8008 24.6667 28.5 24.6667C29.2858 24.6667 29.3333 21.4524 29.3333 19.6667C29.3333 17.881 29.3333 14.6667 28.5 14.6667Z" fill="#fff" />
</svg>