<svg width="40" height="40" viewBox="0 0 40 40" fill="none" xmlns="http://www.w3.org/2000/svg">
    <path fill-rule="evenodd" clip-rule="evenodd" d="M0 20C0 8.95431 8.95431 0 20 0V0C31.0457 0 40 8.95431 40 20V20C40 31.0457 31.0457 40 20 40V40C8.95431 40 0 31.0457 0 20V20Z" fill="#19D255" />
    <path d="M23.5397 16.9535C24.7172 18.131 25.4436 19.1544 28.0149 17.0938C30.5885 15.0308 28.5979 13.6354 27.4573 12.4955C26.1407 11.1806 21.2674 12.3951 16.4667 17.1935C11.6683 21.9919 10.4521 26.8677 11.7687 28.1844C12.9092 29.3249 14.3022 31.3156 16.3646 28.7437C18.4282 26.173 17.4041 25.446 16.2248 24.2691C15.4043 23.4444 17.1034 21.3853 18.8797 19.6066C20.656 17.8278 22.7174 16.1288 23.5397 16.9535Z" fill="white" />
</svg>