<svg xmlns="http://www.w3.org/2000/svg" fill="none" viewBox="0 0 40 40" class="design-iconfont">
    <rect width="40" height="40" rx="20" fill="#DADADA" fill-opacity=".3"/>
    <path fill-rule="evenodd" clip-rule="evenodd" d="M22.7221 12.9557C22.7001 12.9496 22.6779 12.944 22.6556 12.939C21.5553 12.7392 20.1895 12.5 17.4091 12.5C14.3676 12.5 13.092 12.726 12.0818 12.9127C11.4571 13.0957 10.9647 13.7024 10.8033 14.4884C10.6585 15.4721 10.5 17.9335 10.5 20C10.5 21.7343 10.6118 23.7703 10.7369 24.9409L22.7221 12.9557ZM12.755 27.1654C13.7704 27.3355 15.1033 27.5 17.4091 27.5C20.1658 27.5 21.5319 27.2649 22.6289 27.0761L22.6571 27.0712C23.3225 26.9218 23.8578 26.2925 24.0258 25.4634C24.1647 24.4769 24.3182 22.0315 24.3182 20C24.3182 18.5797 24.2432 16.957 24.1473 15.773L12.755 27.1654ZM13.0606 14.375C12.6004 14.375 12.2273 14.7481 12.2273 15.2083V15.4167C12.2273 15.8769 12.6004 16.25 13.0606 16.25H13.9848C14.4451 16.25 14.8182 15.8769 14.8182 15.4167V15.2083C14.8182 14.7481 14.4451 14.375 13.9848 14.375H13.0606ZM26.0455 17.7232C26.0455 16.4904 27.1794 14.375 28.6364 14.375C29.5 14.375 29.5 17.9911 29.5 20C29.5 22.0089 29.4508 25.625 28.6364 25.625C26.8754 25.625 26.0455 23.7279 26.0455 22.2768V17.7232Z" fill="#fff"/>
    <rect x="24.8574" y="11.8564" width="1.5" height="22" rx=".75" transform="rotate(45 24.8574 11.8564)" fill="#FE3C44"/>
  </svg>
  