<svg xmlns="http://www.w3.org/2000/svg" fill="none" viewBox="0 0 40 40" class="design-iconfont">
    <rect width="40" height="40" rx="20" fill="#DADADA" fill-opacity=".3" />
    <path d="M17.7311 15.7485C17.7311 15.4339 18.1333 15.289 18.3596 15.507L22.9808 19.6831C23.1314 19.828 23.1314 20.0453 22.9808 20.166L18.3341 24.3435C18.1086 24.5608 17.7063 24.3917 17.7063 24.102V22.3396C17.7063 22.1464 17.5303 22.0016 17.3296 22.0016C14.2147 22.074 12.4319 22.8707 10.649 24.5366C10.3726 24.778 9.89538 24.5366 10.0205 24.1986C11.1007 21.1565 12.9345 18.4042 17.7311 17.8006V15.7485Z" fill="#fff" />
    <path d="M24.7603 17.0411C26.4103 18.6911 26.4328 21.3438 24.8106 22.9661C24.5788 23.1978 24.1999 23.1946 23.9642 22.9589C23.7284 22.7232 23.7252 22.3442 23.957 22.1124C25.1157 20.9537 25.0996 19.0589 23.9211 17.8803C23.6853 17.6446 23.6821 17.2656 23.9139 17.0339C24.1456 16.8021 24.5246 16.8053 24.7603 17.0411Z" fill="#fff" />
    <path d="M26.8765 14.925C29.7051 17.7536 29.7437 22.3011 26.9627 25.0821C26.731 25.3138 26.352 25.3106 26.1163 25.0749C25.8806 24.8392 25.8773 24.4602 26.1091 24.2285C28.4266 21.911 28.3944 18.1214 26.0373 15.7642C25.8016 15.5285 25.7983 15.1495 26.0301 14.9178C26.2618 14.686 26.6408 14.6893 26.8765 14.925Z" fill="#fff" />
</svg>