<svg xmlns="http://www.w3.org/2000/svg" fill="none" viewBox="0 0 16 16" class="design-iconfont">
    <path d="M13.733 6.99996C13.7997 6.99996 13.933 6.99996 13.9997 6.93329C14.133 6.86663 14.2663 6.73329 14.333 6.59996C14.3997 6.46663 14.3997 6.26663 14.333 6.06663C14.2663 5.99996 14.2663 5.93329 14.1997 5.86663L10.1997 1.86663C9.93301 1.59996 9.53301 1.59996 9.26634 1.86663C8.99967 2.13329 8.99967 2.53329 9.26634 2.79996L12.133 5.66663H1.99967C1.59967 5.66663 1.33301 5.93329 1.33301 6.33329C1.33301 6.73329 1.59967 6.99996 1.99967 6.99996H13.733ZM13.9997 8.99996H2.26634C2.19967 8.99996 2.06634 8.99996 1.99967 9.06663C1.86634 9.13329 1.73301 9.26663 1.66634 9.39996C1.59967 9.53329 1.59967 9.73329 1.66634 9.93329C1.73301 9.99996 1.73301 10.0666 1.79967 10.1333L5.79967 14.1333C5.93301 14.2666 6.13301 14.3333 6.26634 14.3333C6.39967 14.3333 6.59967 14.2666 6.73301 14.1333C6.99967 13.8666 6.99967 13.4666 6.73301 13.2L3.86634 10.3333H13.9997C14.3997 10.3333 14.6663 10.0666 14.6663 9.66663C14.6663 9.26663 14.3997 8.99996 13.9997 8.99996Z" fill="#000" opacity=".4" />
</svg>