<svg width="47" height="43" viewBox="0 0 47 43" fill="none" xmlns="http://www.w3.org/2000/svg">
<path d="M34.4025 13.9337C34.2352 13.9228 33.9945 14.061 33.513 14.3375L21.1964 21.4096C20.238 21.9599 19.7588 22.235 19.3911 22.6007C18.9009 23.0884 18.5484 23.6959 18.369 24.3622C18.2344 24.8619 18.2344 25.4125 18.2344 26.5137V37.7708C18.2344 40.5922 20.5324 42.8793 23.3672 42.8793C25.6912 42.8793 27.7253 41.3252 28.3257 39.0907L34.7279 15.2652C34.8716 14.7307 34.9434 14.4635 34.8895 14.3056C34.8176 14.095 34.6254 13.9483 34.4025 13.9337Z" fill="#0C60F2"/>
<path d="M17.4157 3.55037C17.1773 3.47832 16.8775 3.51727 16.2779 3.59517L9.91992 4.42129C2.51903 5.38292 -1.61988 13.4109 1.91875 19.9407C4.77056 25.2031 11.4378 27.079 16.643 24.0833L16.6482 24.0803C17.6293 23.5145 18.2335 22.473 18.2345 21.3458L18.2345 5.30164C18.2345 4.70082 18.2345 4.40041 18.1317 4.17479C17.9946 3.87397 17.7337 3.64643 17.4157 3.55037Z" fill="#0095FF"/>
<path d="M20.0697 4.57358L32.4888 11.7846C33.3484 12.2837 33.7782 12.5332 34.2286 12.6544C34.829 12.8159 35.4612 12.8154 36.0614 12.6528C36.5115 12.5309 36.9409 12.2806 37.7996 11.78L44.4595 7.89772C45.899 7.0586 46.6847 5.42107 46.4427 3.76469C46.1199 1.55577 44.0962 0.0158419 41.8965 0.305343L20.3533 3.14065C19.7462 3.22054 19.4427 3.26049 19.3228 3.37342C19.1629 3.524 19.1161 3.7604 19.2065 3.96116C19.2742 4.11173 19.5394 4.26568 20.0697 4.57358Z" fill="#00CCFF"/>
</svg>
