<svg class="icon" viewBox="0 0 1024 1024" xmlns="http://www.w3.org/2000/svg" width="200" height="200"><defs><style/></defs><path d="M446.866 616.01c-1.133 3.985-29.147-9.144-36.571-11.996-7.424-3.438-41.143-22.272-49.7-28.014s-41.144-32.585-45.13-34.304a1034.057 1034.057 0 0 1-76.58 103.424c-10.277 11.995-41.143 50.87-60.014 62.866-2.853 1.72-19.42 3.438-21.724 2.304 9.143-6.839 35.438-39.424 46.848-52.553 14.3-16.567 82.286-111.433 93.696-133.156 11.996-21.724 47.982-93.696 49.701-100.572-5.705-.585-50.87 14.848-62.866 18.871-11.447 3.438-42.862 10.862-45.13 12.58-2.303 2.305-.585 9.143-1.718 11.447s-11.447 7.424-17.7 8.558a60.233 60.233 0 0 1-26.844 0c-7.424-1.719-14.3-9.143-16.019-11.995 0 0-2.304-3.438-2.852-13.13 6.839-2.303 18.286-2.852 30.866-6.29s43.447-12.58 60.014-18.285 48.567-17.701 58.295-20.005c10.276-1.719 35.986-18.87 49.7-23.442s23.443-10.277 23.991-7.424 0 15.433-.585 18.87c-.585 2.853-28.014 56.577-32 65.134-2.304 4.572-18.286 34.853-43.995 74.862 9.142 3.986 28.562 11.995 36.571 16.018 9.728 4.572 77.714 33.134 81.152 34.304s9.728 27.429 8.558 32zM329.728 338.285c1.719 9.728-1.134 13.714-2.304 16.018-5.705 10.862-20.005 18.286-28.562 21.723s-22.857 6.84-34.304 6.84c-5.157-.586-15.433-2.305-28.014-14.849-6.839-7.424-11.995-27.428-9.728-25.16s18.87 4.57 26.295 2.852 25.161-6.84 33.134-9.143c8.557-2.853 25.71-7.424 31.414-8.01 5.706 0 10.277 2.305 11.996 9.729zm398.848 73.728l35.986 129.719-79.433-23.991zM95.415 869.157l396.58-132.572V146.871L95.415 280.027v589.13zM804.57 688.018l58.295 17.7-103.424-375.441-57.16-17.701-123.43 306.286 58.295 17.7 25.71-62.866 120.576 37.157zM517.157 138.277L844.58 243.419V26.26zm177.7 756.004l90.295 7.424-30.866 91.429-22.857-37.705c-46.3 29.696-103.424 52.553-157.696 61.696-16.567 3.437-35.438 6.838-52.005 6.838H473.71c-60.563 0-170.862-35.986-218.844-70.838-3.437-2.853-4.571-5.157-4.571-9.143 0-6.29 4.571-10.862 10.276-10.862 5.157 0 32 16.567 39.424 20.005 51.42 25.71 123.429 49.152 181.139 49.152 71.424 0 119.99-9.143 185.16-37.157 18.872-8.558 35.439-19.42 53.14-29.147zm256-616.558v616.558c-441.71-140.58-442.295-140.58-442.295-140.58C499.42 757.687 89.71 896 84.005 896a10.971 10.971 0 0 1-10.277-7.424c0-.585-.585-1.134-.585-1.719V270.848c.585-1.719 1.134-4.571 2.304-5.705 3.438-3.986 8.009-5.157 11.447-6.29 1.719-.586 36.571-11.996 85.138-28.563V10.862l318.866 113.152C494.885 122.88 850.322 0 855.478 0c6.291 0 11.448 4.571 11.448 11.995v238.848z"/></svg>